<svg id="Layer_1" data-name="Layer 1" xmlns="http://www.w3.org/2000/svg" viewBox="0 0 400 300"><defs><style>.cls-1{fill:#fff;}.cls-2{fill:#7f8c8d;}.cls-3{fill:none;stroke:#fff;stroke-linecap:round;stroke-linejoin:round;stroke-width:0;}</style></defs><title>fontIcon</title><path class="cls-1" d="M37-377h71.53l1,21h-2.46c-0.47-4-1.12-6.43-1.94-8a14,14,0,0,0-5.33-5.88A18.4,18.4,0,0,0,91.05-372H79v67.44c0,5.39.44,8.63,1.6,10,1.64,1.81,4,2.6,7.42,2.6h3v3H54v-3h3c3.7,0,6.18-1,7.73-3.24,0.95-1.38,1.27-4.41,1.27-9.32V-372H55.77A27.54,27.54,0,0,0,47-370.85a12.82,12.82,0,0,0-5.75,5.07c-1.59,2.33-2.54,5.78-2.84,9.78H36ZM36-270H366v3H36v-3Zm0,18H366v3H36v-3Zm0,19H366v3H36v-3Zm0,19H287v3H36v-1h0v-2Z" transform="translate(-1 407)"/><path class="cls-2" d="M385.13-407H16.87A15.87,15.87,0,0,0,1-391.13v268.26A15.87,15.87,0,0,0,16.87-107H385.13A15.87,15.87,0,0,0,401-122.87V-391.13A15.87,15.87,0,0,0,385.13-407ZM16.87-397H385.13a5.87,5.87,0,0,1,5.87,5.87V-190H11V-391.13A5.87,5.87,0,0,1,16.87-397ZM77-180h54v63H77v-63Zm64,0h56v63H141v-63Zm66,0h53v63H207v-63Zm63,0h56v63H270v-63ZM11-122.87V-180H67v63H16.87A5.87,5.87,0,0,1,11-122.87ZM385.13-117H336v-63h55v57.13A5.87,5.87,0,0,1,385.13-117Z" transform="translate(-1 407)"/><rect class="cls-2" x="35" y="137" width="330" height="3"/><rect class="cls-2" x="35" y="155" width="330" height="3"/><rect class="cls-2" x="35" y="174" width="330" height="3"/><line class="cls-3" x1="35" y1="195" x2="35" y2="195"/><polygon class="cls-2" points="286 196 286 193 35 193 35 195 35 196 286 196"/><path class="cls-2" d="M41.3-365.66A12.85,12.85,0,0,1,47-370.74,26.81,26.81,0,0,1,55.77-372H66v67.44c0,4.91-.32,7.94-1.27,9.32C63.18-293,60.71-292,57-292H54v3H91v-3H88c-3.4,0-5.78-.79-7.42-2.6-1.16-1.33-1.6-4.58-1.6-10V-372H91.05a18.45,18.45,0,0,1,8.76,2,13.93,13.93,0,0,1,5.33,5.87c0.82,1.55,1.46,4.1,1.94,8.1h2.46l-1-21H37l-1,21h2.46C38.76-360,39.7-363.33,41.3-365.66Z" transform="translate(-1 407)"/></svg>