<svg id="Layer_1" data-name="Layer 1" xmlns="http://www.w3.org/2000/svg" viewBox="0 0 400 300"><defs><style>.cls-1{fill:none;}.cls-2{fill:#7f8c8d;}</style></defs><title>paletteIcon</title><rect class="cls-1" x="205" y="202" width="185" height="38"/><rect class="cls-1" x="205" y="155" width="185" height="37"/><path class="cls-1" d="M-247-117H-67.87A5.87,5.87,0,0,0-62-122.87V-157H-247v40Z" transform="translate(452 407)"/><path class="cls-1" d="M-442-391.13v159L-398.77-299l64.83,94,31.46-57L-257-168.28V-397H-436.13A5.87,5.87,0,0,0-442-391.13ZM-302.75-357A24.75,24.75,0,0,1-278-332.25a24.75,24.75,0,0,1-24.75,24.75,24.75,24.75,0,0,1-24.75-24.75A24.75,24.75,0,0,1-302.75-357Z" transform="translate(452 407)"/><rect class="cls-1" x="205" y="60" width="185" height="38"/><rect class="cls-1" x="205" y="108" width="185" height="37"/><path class="cls-1" d="M-67.87-397H-247v40H-62v-34.13A5.87,5.87,0,0,0-67.87-397Z" transform="translate(452 407)"/><path class="cls-2" d="M-67.87-407H-436.13A15.86,15.86,0,0,0-452-391.13v268.26A15.86,15.86,0,0,0-436.13-107H-67.87A15.86,15.86,0,0,0-52-122.87V-391.13A15.86,15.86,0,0,0-67.87-407ZM-257-168.28L-302.49-262l-31.46,57-64.83-94L-442-232.17v-159a5.87,5.87,0,0,1,5.87-5.87H-257v228.72Zm195,45.41A5.87,5.87,0,0,1-67.87-117H-247v-40H-62v34.13ZM-62-167H-247v-38H-62v38Zm0-48H-247v-37H-62v37Zm0-47H-247v-37H-62v37Zm0-47H-247v-38H-62v38Zm0-48H-247v-40H-67.87A5.87,5.87,0,0,1-62-391.13V-357Z" transform="translate(452 407)"/><circle class="cls-2" cx="149.25" cy="74.75" r="24.75"/></svg>