<svg id="Layer_1" data-name="Layer 1" xmlns="http://www.w3.org/2000/svg" viewBox="0 0 400 300"><defs><style>.cls-1{fill:none;}.cls-2{fill:#7f8c8d;}</style></defs><title>pizzaIcon</title><path class="cls-1" d="M149,103.93c3.55-6.31,11-7.45,16.22-7.76,5.49-.32,23.49-8.16,27.5-14.32,3.44-5.29,7.75-5.44,10.61-5.53a6.51,6.51,0,0,0,2.24-.28l0.59-.34c2.54-1.48,6.79-4,10.32-1.6A21.7,21.7,0,0,0,242,71.86c8.64-7.4,14.87-7.08,18-6.11,0.92-12.6,0-20.12-2.67-22.93-1.76-1.82-4.41-1.69-7.49-1.54a28.87,28.87,0,0,1-5.38-.07,22.3,22.3,0,0,0-9.24.54,14.76,14.76,0,0,1-8.66,0c-4.12-1.24-5.27-.26-7.55,1.69a28.25,28.25,0,0,1-3.21,2.46c-3.17,2-6.33,1.17-8.85.48-1.72-.47-3.21-0.88-4.34-0.37a1.45,1.45,0,0,0-.86,1.18c-1,3-2.94,4-12,2.26a17.06,17.06,0,0,0-3.25-.35c-3.88,0-5.65,1.91-8.26,4.71-3.1,3.32-7,7.45-15.84,9.63-11.31,2.77-15.08,6.35-18.73,9.81a33,33,0,0,1-6.89,5.38,29,29,0,0,1-8.16,2.94c-4.49,1.07-9.13,2.18-17.54,10.18-4.38,4.17-6.45,7.76-6.49,11.3-0.08,6.35,6.07,13.32,16.63,23.91C139.68,119.24,147.61,106.45,149,103.93Z"/><path class="cls-1" d="M252.86,245a17.62,17.62,0,0,1,7.74-14.6c-0.73-5.07-.52-8.4.24-15.53,0.26-2.41.7-5,1.17-7.65,1.29-7.38,2.75-15.75,0-21.54-4.1-8.54-1.09-19.82.89-27.28l0.2-.75c1.75-6.61-.55-29.71-1.89-37.7-1.18-7.1-.32-11.78.77-17.7,0.18-1,.38-2,0.57-3.14,1.32-7.6-.08-25.1-2.35-30-1.24-.68-6.83-2.94-16.19,5.1a24.82,24.82,0,0,1-9.89,5.29c0.54,0,1.08-.08,1.63-0.08a17.69,17.69,0,1,1-4.87.7,25.48,25.48,0,0,1-16-3.47c-2-1.32-5.09.5-7.15,1.7l-0.61.35a7.77,7.77,0,0,1-3.62.68c-2.63.09-5.61,0.19-8.2,4.17-4.59,7.06-23.58,15.31-29.84,15.68-7.25.43-11.63,2.41-13.78,6.24-1.51,2.68-10,16.37-29.6,24.46,0.37,6.63,3.8,6.64,5,6.64,3.65,0,8.52,3,10.87,9.67,0.88,2.5,3.4,3.5,6,4.56,2.38,1,4.87,2,6,4.27,0.75,1.5,1.38,2.91,2,4.27a53.68,53.68,0,0,0,3.65,7.28,10.29,10.29,0,0,0,3.44,3.16,12.67,12.67,0,0,1,5.55,6.37,17.64,17.64,0,1,1,21.58,18.58,29.46,29.46,0,0,0,5.8,4c1.22,0.58,2.35,1,3.44,1.41,4.53,1.69,8.1,3,10.7,12.55,0.16,0.59.32,1.11,0.49,1.6a17.64,17.64,0,1,1,27.15,21.59,45.09,45.09,0,0,1,7,11.6c4,9.24,11.64,13.54,17.41,13.71a8.1,8.1,0,0,0,3.85-.71A17.63,17.63,0,0,1,252.86,245ZM184.67,143.13a17.64,17.64,0,1,1,17.64-17.64A17.64,17.64,0,0,1,184.67,143.13Zm48.5,30.5A17.64,17.64,0,1,1,250.81,156,17.64,17.64,0,0,1,233.17,173.63Z"/><path class="cls-1" d="M167.42,182.74a7.76,7.76,0,0,0,2.38,2.18C168.94,184.19,168.13,183.46,167.42,182.74Z"/><path class="cls-1" d="M384.13,10H15.87A5.87,5.87,0,0,0,10,15.87V284.13A5.87,5.87,0,0,0,15.87,290H384.13a5.87,5.87,0,0,0,5.87-5.87V15.87A5.87,5.87,0,0,0,384.13,10ZM266.54,260c-1.31,2.59-4.32,4.11-8.1,4.11H258c-6.72-.2-15.53-5.07-20.07-15.51-4.83-11.12-10-14.61-15.05-18a56.25,56.25,0,0,1-5.21-3.81,17.59,17.59,0,0,0-5.92-3.26c-3.45-1.29-6.44-2.39-8.55-10.15-2.19-8-4.7-9-8.85-10.53-1.1-.41-2.34-0.87-3.68-1.51-3.11-1.47-6.15-4.11-9.1-6.66s-6.06-5.25-8.14-5.55c-6-.86-9.3-4-11.23-10.74-1-3.66-2.81-4.84-4.85-6.21a13.15,13.15,0,0,1-4.32-4.08,56.71,56.71,0,0,1-3.84-7.65c-0.58-1.33-1.18-2.7-1.89-4.13s-2.49-2-4.44-2.83c-2.81-1.15-6.3-2.57-7.63-6.34-1.86-5.27-5.41-7.67-7.92-7.67-2.86,0-7.61-1.34-7.83-10.21-11.22-11.23-18.07-18.57-18-26.28,0.06-4.41,2.42-8.68,7.43-13.44,9-8.55,14.27-9.81,18.91-10.92A26.16,26.16,0,0,0,135.27,76a30.18,30.18,0,0,0,6.3-4.94c3.75-3.55,8-7.58,20.08-10.54,8-2,11.39-5.58,14.36-8.77,3.4-3.65,6.34-6.8,14.28-5.25s8.35,0.61,8.62-.24a4.33,4.33,0,0,1,2.47-3c2.11-1,4.28-.37,6.37.21,2.26,0.62,4.39,1.21,6.44-.11a25.37,25.37,0,0,0,2.88-2.22c2.51-2.14,4.67-4,10.36-2.29,3,0.89,4.71.49,7.12-.07a25.47,25.47,0,0,1,10.32-.59,26.6,26.6,0,0,0,4.83.05c3.49-.17,7.09-0.35,9.79,2.45,3.57,3.69,4.61,12,3.37,27,2.74,5.91,3.95,24.21,2.62,31.88-0.19,1.11-.39,2.16-0.57,3.17-1.08,5.85-1.86,10.08-.76,16.66,1.29,7.76,3.81,31.48,1.83,39l-0.2.75c-1.87,7-4.71,17.67-1.09,25.21,3.19,6.66,1.65,15.53.28,23.35-0.46,2.65-.9,5.14-1.14,7.46-1,9.06-1,11.56.65,19.88,0.37,1.86.86,3.83,1.34,5.73C267.51,247.58,269.27,254.62,266.54,260Z"/><path class="cls-2" d="M384.13,0H15.87A15.87,15.87,0,0,0,0,15.87V284.13A15.87,15.87,0,0,0,15.87,300H384.13A15.87,15.87,0,0,0,400,284.13V15.87A15.87,15.87,0,0,0,384.13,0ZM390,284.13a5.87,5.87,0,0,1-5.87,5.87H15.87A5.87,5.87,0,0,1,10,284.13V15.87A5.87,5.87,0,0,1,15.87,10H384.13A5.87,5.87,0,0,1,390,15.87V284.13Z"/><path class="cls-2" d="M264.47,235c-1.66-8.31-1.62-10.81-.65-19.88,0.25-2.32.68-4.81,1.14-7.46,1.37-7.83,2.91-16.7-.28-23.35-3.62-7.54-.79-18.17,1.09-25.21l0.2-.75c2-7.48-.54-31.21-1.83-39-1.1-6.59-.32-10.81.76-16.66,0.19-1,.38-2.06.57-3.17,1.33-7.67.13-26-2.62-31.88,1.24-14.95.2-23.28-3.37-27-2.71-2.8-6.31-2.62-9.79-2.45a26.6,26.6,0,0,1-4.83-.05,25.47,25.47,0,0,0-10.32.59c-2.4.56-4.14,1-7.12,0.07-5.69-1.71-7.86.14-10.36,2.29a25.37,25.37,0,0,1-2.88,2.22c-2,1.31-4.18.73-6.44,0.11-2.09-.58-4.26-1.17-6.37-0.21a4.33,4.33,0,0,0-2.47,3c-0.27.85-.59,1.81-8.62,0.24s-10.88,1.6-14.28,5.25c-3,3.19-6.34,6.8-14.36,8.77-12.08,3-16.33,7-20.08,10.54a30.18,30.18,0,0,1-6.3,4.94,26.16,26.16,0,0,1-7.39,2.63C123.23,79.77,118,81,109,89.58c-5,4.76-7.37,9-7.43,13.44-0.1,7.71,6.75,15.05,18,26.28,0.21,8.86,5,10.21,7.83,10.21,2.51,0,6.06,2.4,7.92,7.67,1.33,3.77,4.82,5.19,7.63,6.34,2,0.8,3.8,1.55,4.44,2.83s1.31,2.8,1.89,4.13a56.71,56.71,0,0,0,3.84,7.65,13.15,13.15,0,0,0,4.32,4.08c2,1.37,3.8,2.55,4.85,6.21,1.93,6.76,5.19,9.88,11.23,10.74,2.08,0.3,5.16,3,8.14,5.55s6,5.18,9.1,6.66c1.33,0.63,2.58,1.1,3.68,1.51,4.15,1.55,6.66,2.49,8.85,10.53,2.12,7.76,5.1,8.87,8.55,10.15a17.59,17.59,0,0,1,5.92,3.26,56.25,56.25,0,0,0,5.21,3.81c5,3.37,10.22,6.86,15.05,18C242.5,259,251.31,263.92,258,264.11h0.42c3.78,0,6.79-1.52,8.1-4.11,2.73-5.39,1-12.43-.73-19.24C265.33,238.87,264.84,236.9,264.47,235Zm-159.93-132c0-3.54,2.11-7.13,6.49-11.3,8.42-8,13.06-9.1,17.54-10.18a29,29,0,0,0,8.16-2.94,33,33,0,0,0,6.89-5.38c3.65-3.46,7.42-7,18.73-9.81,8.89-2.18,12.75-6.31,15.84-9.63,2.61-2.8,4.39-4.71,8.26-4.71a17.06,17.06,0,0,1,3.25.35c9.11,1.78,11.08.74,12-2.26a1.45,1.45,0,0,1,.86-1.18c1.13-.51,2.61-0.1,4.34.37,2.53,0.69,5.68,1.56,8.85-.48A28.25,28.25,0,0,0,219,43.46c2.28-2,3.43-2.93,7.55-1.69a14.76,14.76,0,0,0,8.66,0,22.3,22.3,0,0,1,9.24-.54,28.87,28.87,0,0,0,5.38.07c3.08-.15,5.73-0.28,7.49,1.54,2.72,2.81,3.59,10.33,2.67,22.93-3.11-1-9.34-1.29-18,6.11a21.7,21.7,0,0,1-25.52,2.22c-3.54-2.36-7.78.12-10.32,1.6l-0.59.34a6.51,6.51,0,0,1-2.24.28c-2.86.1-7.17,0.24-10.61,5.53-4,6.16-22,14-27.5,14.32-5.26.31-12.67,1.45-16.22,7.76-1.42,2.52-9.35,15.31-27.85,23C110.61,116.38,104.46,109.4,104.54,103.05ZM263.63,261.23a17.54,17.54,0,0,1-1.67-.82,8.1,8.1,0,0,1-3.85.71c-5.77-.17-13.39-4.47-17.41-13.71a45.09,45.09,0,0,0-7-11.6,17.71,17.71,0,0,1-1.72,1.32c-1.4-2.51-1.4-2.51-7.58-7.27-6.66-5.13-19.42-11.68-19.16-12.53a17.51,17.51,0,0,1,1.31-3.11c-0.16-.49-0.33-1-0.49-1.6-2.6-9.52-6.17-10.86-10.7-12.55-1.09-.41-2.22-0.83-3.44-1.41a29.46,29.46,0,0,1-5.8-4,17.64,17.64,0,0,1-4,.47c-1.52-2.62-7.74-6.34-12.36-10.22a7.76,7.76,0,0,1-2.38-2.18c-1.73-1.78-2.9-3.56-2.9-5.24,0-.48,0-0.95.07-1.41a12.67,12.67,0,0,0-5.55-6.37,10.29,10.29,0,0,1-3.44-3.16,53.68,53.68,0,0,1-3.65-7.28c-0.59-1.36-1.22-2.78-2-4.27-1.15-2.29-3.64-3.3-6-4.27-2.6-1.06-5.12-2.06-6-4.56-2.36-6.68-7.22-9.67-10.87-9.67-1.25,0-4.68,0-5-6.64,19.62-8.09,28.1-21.77,29.6-24.46,2.15-3.83,6.53-5.81,13.78-6.24,6.25-.37,25.25-8.62,29.84-15.68,2.59-4,5.57-4.08,8.2-4.17a7.77,7.77,0,0,0,3.62-.68l0.61-.35c2.06-1.2,5.17-3,7.15-1.7a25.48,25.48,0,0,0,16,3.47,17.54,17.54,0,0,1,3.25-.62A24.82,24.82,0,0,0,244,74.14c9.37-8,15-5.78,16.19-5.1,2.27,4.93,3.67,22.44,2.35,30-0.19,1.1-.38,2.14-0.57,3.14-1.09,5.92-2,10.59-.77,17.7,1.33,8,3.64,31.09,1.89,37.7l-0.2.75c-2,7.46-5,18.74-.89,27.28,2.78,5.79,1.32,14.16,0,21.54-0.47,2.69-.91,5.24-1.17,7.65-0.76,7.14-1,10.46-.24,15.53,0.27-.18.54-0.36,0.81-0.52l5,22.65Z"/><path class="cls-2" d="M218.07,97a17.64,17.64,0,1,0,17.64-17.64c-0.55,0-1.09,0-1.63.08A17.67,17.67,0,0,0,218.07,97Z"/><circle class="cls-2" cx="184.67" cy="125.49" r="17.64"/><circle class="cls-2" cx="233.17" cy="155.99" r="17.64"/><path class="cls-2" d="M239.81,222.49a17.66,17.66,0,0,0-34.52-5.17c-0.26.85,12.5,7.4,19.16,12.53,6.18,4.76,6.18,4.76,7.58,7.27A17.69,17.69,0,0,0,239.81,222.49Z"/><path class="cls-2" d="M260.6,230.37a17.71,17.71,0,0,0,3,30.86l2.83-8.73-5-22.65C261.14,230,260.87,230.19,260.6,230.37Z"/><path class="cls-2" d="M199.81,177.49a17.64,17.64,0,0,0-35.21-1.41c0,0.47-.07.94-0.07,1.41,0,1.69,1.17,3.46,2.9,5.24,0.71,0.73,1.52,1.46,2.38,2.18,4.63,3.88,10.84,7.6,12.36,10.22A17.71,17.71,0,0,0,199.81,177.49Z"/></svg>