<svg id="Layer_1" data-name="Layer 1" xmlns="http://www.w3.org/2000/svg" viewBox="0 0 400 300"><defs><style>.cls-1{fill:none;}.cls-2{fill:#7f8c8d;}</style></defs><title>previewIcon</title><path class="cls-1" d="M830.13-402H461.87a5.87,5.87,0,0,0-5.87,5.87v268.26a5.87,5.87,0,0,0,5.87,5.87H830.13a5.87,5.87,0,0,0,5.87-5.87V-396.13A5.87,5.87,0,0,0,830.13-402ZM707-158.67A11.67,11.67,0,0,1,695.33-147H596.67A11.67,11.67,0,0,1,585-158.67V-365.33A11.67,11.67,0,0,1,596.67-377h98.67A11.67,11.67,0,0,1,707-365.33v206.67Z" transform="translate(-446 412)"/><path class="cls-1" d="M698.71-373.32a8.64,8.64,0,0,0-3.37-.68H596.67a8.64,8.64,0,0,0-3.37.68,8.67,8.67,0,0,0-5.29,8h0v206.67h0a8.67,8.67,0,0,0,5.29,8,8.64,8.64,0,0,0,3.37.68h98.67a8.64,8.64,0,0,0,3.37-.68,8.67,8.67,0,0,0,5.29-8h0V-365.33h0A8.67,8.67,0,0,0,698.71-373.32ZM646-154.61a6.19,6.19,0,0,1-6.19-6.19A6.19,6.19,0,0,1,646-167a6.19,6.19,0,0,1,6.19,6.19A6.19,6.19,0,0,1,646-154.61Zm55-17.89a1.5,1.5,0,0,1-1.5,1.5h-107a1.5,1.5,0,0,1-1.5-1.5v-179a1.5,1.5,0,0,1,1.5-1.5h107a1.5,1.5,0,0,1,1.5,1.5v179Z" transform="translate(-446 412)"/><path class="cls-2" d="M830.13-412H461.87A15.87,15.87,0,0,0,446-396.13v268.26A15.87,15.87,0,0,0,461.87-112H830.13A15.87,15.87,0,0,0,846-127.87V-396.13A15.87,15.87,0,0,0,830.13-412ZM836-127.87a5.87,5.87,0,0,1-5.87,5.87H461.87a5.87,5.87,0,0,1-5.87-5.87V-396.13a5.87,5.87,0,0,1,5.87-5.87H830.13a5.87,5.87,0,0,1,5.87,5.87v268.26Z" transform="translate(-446 412)"/><path class="cls-2" d="M695.33-377H596.67A11.67,11.67,0,0,0,585-365.33v206.67A11.67,11.67,0,0,0,596.67-147h98.67A11.67,11.67,0,0,0,707-158.67V-365.33A11.67,11.67,0,0,0,695.33-377ZM704-365.33v206.67h0a8.67,8.67,0,0,1-5.29,8,8.64,8.64,0,0,1-3.37.68H596.67a8.64,8.64,0,0,1-3.37-.68,8.67,8.67,0,0,1-5.29-8h0V-365.33h0a8.67,8.67,0,0,1,5.29-8,8.64,8.64,0,0,1,3.37-.68h98.67a8.64,8.64,0,0,1,3.37.68,8.67,8.67,0,0,1,5.29,8h0Z" transform="translate(-446 412)"/><circle class="cls-2" cx="200" cy="251.21" r="6.19"/><rect class="cls-2" x="145" y="59" width="110" height="182" rx="1.5" ry="1.5"/></svg>