<svg id="Layer_1" data-name="Layer 1" xmlns="http://www.w3.org/2000/svg" viewBox="0 0 400 300.01"><defs><style>.cls-1{fill:none;}.cls-2{fill:#7f8c8d;}</style></defs><title>toTop</title><path class="cls-1" d="M10.71,163.08a5.89,5.89,0,0,1,1-1.35A5.89,5.89,0,0,0,10.71,163.08Z" transform="translate(0 0.01)"/><path class="cls-1" d="M11.72,161.73a5.9,5.9,0,0,1,.87-0.72A5.9,5.9,0,0,0,11.72,161.73Z" transform="translate(0 0.01)"/><path class="cls-1" d="M10,165.88h0a5.85,5.85,0,0,1,.46-2.28A5.85,5.85,0,0,0,10,165.88Z" transform="translate(0 0.01)"/><path class="cls-1" d="M10,202.14a5.94,5.94,0,0,0,0,.6,5.94,5.94,0,0,1,0-.6h0Z" transform="translate(0 0.01)"/><path class="cls-1" d="M390,202.74a5.84,5.84,0,0,1-.23,1.14A5.84,5.84,0,0,0,390,202.74Z" transform="translate(0 0.01)"/><path class="cls-1" d="M10.26,203.89a5.84,5.84,0,0,1-.23-1.14A5.84,5.84,0,0,0,10.26,203.89Z" transform="translate(0 0.01)"/><path class="cls-1" d="M387.41,161a5.89,5.89,0,0,1,.87.72A5.89,5.89,0,0,0,387.41,161Z" transform="translate(0 0.01)"/><path class="cls-1" d="M390,202.14h0a5.94,5.94,0,0,1,0,.6A5.94,5.94,0,0,0,390,202.14Z" transform="translate(0 0.01)"/><path class="cls-1" d="M390,165.88h0a5.85,5.85,0,0,0-.46-2.28A5.85,5.85,0,0,1,390,165.88Z" transform="translate(0 0.01)"/><path class="cls-1" d="M11.34,205.88A5.9,5.9,0,0,0,12.59,207,5.9,5.9,0,0,1,11.34,205.88Z" transform="translate(0 0.01)"/><path class="cls-1" d="M387.41,207a5.9,5.9,0,0,0,1.25-1.13A5.9,5.9,0,0,1,387.41,207Z" transform="translate(0 0.01)"/><path class="cls-1" d="M388.28,161.73a5.89,5.89,0,0,1,1,1.35A5.89,5.89,0,0,0,388.28,161.73Z" transform="translate(0 0.01)"/><path class="cls-2" d="M400,247.87A15.87,15.87,0,0,0,384.13,232H15.87A15.87,15.87,0,0,0,0,247.87v36.26A15.87,15.87,0,0,0,15.87,300H384.13A15.87,15.87,0,0,0,400,284.13V247.87Zm-10,36.26a5.87,5.87,0,0,1-5.87,5.87H15.87A5.87,5.87,0,0,1,10,284.13V247.87A5.87,5.87,0,0,1,15.87,242H384.13a5.87,5.87,0,0,1,5.87,5.87v36.26Z" transform="translate(0 0.01)"/><path class="cls-2" d="M400,165.87A15.87,15.87,0,0,0,384.13,150H15.87A15.87,15.87,0,0,0,0,165.87v36.26A15.87,15.87,0,0,0,15.87,218H384.13A15.87,15.87,0,0,0,400,202.13V165.87Zm-10,0v36.26h0a5.94,5.94,0,0,1,0,.6,5.85,5.85,0,0,1-5.84,5.26H15.87A5.85,5.85,0,0,1,10,202.74a5.93,5.93,0,0,1,0-.6h0V165.88h0a5.85,5.85,0,0,1,.46-2.28q0.11-.26.25-0.51A5.88,5.88,0,0,1,15.87,160H384.13a5.85,5.85,0,0,1,3.28,1,5.94,5.94,0,0,1,1.88,2.07c0.09,0.17.17,0.34,0.25,0.51a5.85,5.85,0,0,1,.46,2.28h0Z" transform="translate(0 0.01)"/><path class="cls-2" d="M141,65h27v68.34c0,2.91,2.07,5.66,4.83,5.66h54.34c2.76,0,4.83-2.76,4.83-5.66V65h24a4.86,4.86,0,0,0,4.65-3.19,5.32,5.32,0,0,0-1.25-5.71l-56-54.69a4.81,4.81,0,0,0-6.71-.11L137.69,56a5.33,5.33,0,0,0-1.37,5.73A4.89,4.89,0,0,0,141,65Z" transform="translate(0 0.01)"/></svg>